# xmcd
# 
# Track frame offsets:
#     150
#     21135
#     42200
#     63125
#     69977
# 
# Disc length: 1212
# 
# Revision: 2
# Processed by: cddbd v1.5.2PL0 Copyright (c) Steve Scherf et al.
# Submitted via: fre:ac v1.0.17
# 
DISCID=3604ba05
DTITLE=Lil'B - つないだ手
DYEAR=2009
DGENRE=Soundtrack
TTITLE0=つないだ手
TTITLE1=ラストレター
TTITLE2=KISS -one more kiss mix-
TTITLE3=つないだ手 -TV version-
TTITLE4=つないだ手 -karaoke-
EXTD=YEAR: 2009
EXTT0=
EXTT1=
EXTT2=
EXTT3=
EXTT4=
PLAYORDER=
